<svg xmlns="http://www.w3.org/2000/svg" viewBox="0 0 500 1440" width="500" height="1440"><g xmlns="http://www.w3.org/2000/svg" transform="matrix(0 1 -1 0 500 -0)"><g mask="url(&quot;#SvgjsMask1095&quot;)" fill="none"><path d="M61 500L561 0L873 0L373 500z" fill="url(&quot;#SvgjsLinearGradient1096&quot;)"></path><path d="M357.8 500L857.8 0L1312.3 0L812.3 500z" fill="url(&quot;#SvgjsLinearGradient1096&quot;)"></path><path d="M651.6 500L1151.6 0L1427.6 0L927.6 500z" fill="url(&quot;#SvgjsLinearGradient1096&quot;)"></path><path d="M1413 500L913 0L437.5 0L937.5 500z" fill="url(&quot;#SvgjsLinearGradient1097&quot;)"></path><path d="M1060.2 500L560.2 0L344.20000000000005 0L844.2 500z" fill="url(&quot;#SvgjsLinearGradient1097&quot;)"></path><path d="M754.4 500L254.39999999999998 0L188.39999999999998 0L688.4 500z" fill="url(&quot;#SvgjsLinearGradient1097&quot;)"></path><path d="M1042.4194561002657 500L1440 102.41945610026568L1440 500z" fill="url(&quot;#SvgjsLinearGradient1096&quot;)"></path><path d="M0 500L397.5805438997343 500L 0 102.41945610026568z" fill="url(&quot;#SvgjsLinearGradient1097&quot;)"></path></g><defs><mask id="SvgjsMask1095"><rect width="1440" height="500" fill="#ffffff"></rect></mask><linearGradient x1="0%" y1="100%" x2="100%" y2="0%" id="SvgjsLinearGradient1096"><stop stop-color="rgba(239, 36, 39, 1)" offset="0"></stop><stop stop-opacity="0" stop-color="rgba(239, 36, 39, 1)" offset="0.66"></stop></linearGradient><linearGradient x1="100%" y1="100%" x2="0%" y2="0%" id="SvgjsLinearGradient1097"><stop stop-color="rgba(239, 36, 39, 1)" offset="0"></stop><stop stop-opacity="0" stop-color="rgba(239, 36, 39, 1)" offset="0.66"></stop></linearGradient></defs></g></svg>